Coordinates
nRows=4
nColumns=38

# SIMM Motion File Header:
name Coordinates
datacolumns 38
datarows 4
otherdata 1
range 0.76000000000000001000 0.76300000000000001000

Units are S.I. units (second, meters, Newtons, ...)
Angles are in degrees.

endheader
time	pelvis_tilt	pelvis_list	pelvis_rotation	pelvis_tx	pelvis_ty	pelvis_tz	hip_flexion_r	hip_adduction_r	hip_rotation_r	knee_angle_r	ankle_angle_r	subtalar_angle_r	mtp_angle_r	hip_flexion_l	hip_adduction_l	hip_rotation_l	knee_angle_l	ankle_angle_l	subtalar_angle_l	mtp_angle_l	lumbar_extension	lumbar_bending	lumbar_rotation	arm_flex_r	arm_add_r	arm_rot_r	elbow_flex_r	pro_sup_r	wrist_flex_r	wrist_dev_r	arm_flex_l	arm_add_l	arm_rot_l	elbow_flex_l	pro_sup_l	wrist_flex_l	wrist_dev_l
      0.76000000000000001000	     -1.14242463402228810000	      0.05874653748188774600	     -1.85285362194331090000	      0.83905496674824731000	      1.02273201329964980000	     -0.33281182758487476000	    -13.42643676399265700000	      2.13414244202993550000	      2.80760297616453070000	    -43.58281596509018400000	    -18.83838285447031800000	     -0.00000000000004649770	     -0.00000000000001654549	     20.99692136154766300000	      2.71063854787727540000	      4.45178055988289320000	     -8.24457498347129030000	      0.63853285040010699000	     -0.00000000000006812350	      0.00000000000000564265	    -10.12103337012693900000	     -4.29217515324156910000	      6.65941180139945650000	    -15.84705830502299200000	    -24.20588300566990700000	    -13.04994517565078000000	    100.74996836253385000000	     73.59443479674956700000	      0.00000000000000419342	     -0.00000000000001256611	    -37.74077023370242800000	    -16.37424557744392900000	    -12.78378395108225400000	     96.94264443162146000000	     95.45673086410832300000	     -0.00000000000002131839	     -0.00000000000000389157
      0.76100000000000001000	     -1.07507462298780010000	      0.09124165813633318400	     -1.83918888041626900000	      0.83901530722222173000	      1.02248259077706120000	     -0.33283675631923448000	    -13.28553208251448900000	      2.12185881361914630000	      2.84431462520886220000	    -44.13376830793772100000	    -18.75265704921509200000	     -0.00000000000004678036	     -0.00000000000001671124	     20.97136386779315100000	      2.77491299012820520000	      4.47666243789661070000	     -8.54281544013063860000	      0.58540761005775754000	     -0.00000000000006850283	      0.00000000000000566234	    -10.21834520530610900000	     -4.35513060707182120000	      6.59028094502469310000	    -15.83205239089053500000	    -24.18413175341243700000	    -13.00338034469652200000	    100.70153899961248000000	     73.61718024992808300000	      0.00000000000000420660	     -0.00000000000001263493	    -37.62248695983974800000	    -16.43199978775738800000	    -12.73922020239013100000	     96.93769269442545100000	     95.40995223652147700000	     -0.00000000000002145364	     -0.00000000000000387574
      0.76200000000000001000	     -1.00630712811834950000	      0.12587904944756556000	     -1.82362844950870810000	      0.83897401273494920000	      1.02222681797449200000	     -0.33286500595181262000	    -13.14497464950304600000	      2.10752049489916390000	      2.87670286462925650000	    -44.68416242294996700000	    -18.66868199986660700000	     -0.00000000000004706484	     -0.00000000000001687726	     20.94631217831035700000	      2.84329680303690060000	      4.50568379237771930000	     -8.85281303233346330000	      0.53502060086040959000	     -0.00000000000006888331	      0.00000000000000568046	    -10.31754912226252000000	     -4.42027072398652530000	      6.51902315423411590000	    -15.81732363082007400000	    -24.16122439754778000000	    -12.95718040597210100000	    100.65159840807706000000	     73.64060012448996400000	      0.00000000000000422009	     -0.00000000000001270233	    -37.50190199657845400000	    -16.49214397797322100000	    -12.69253148256037100000	     96.93236072071798000000	     95.35947105384082100000	     -0.00000000000002158933	     -0.00000000000000386117
      0.76300000000000001000	     -0.93636417704561592000	      0.16259069895281675000	     -1.80626273086313580000	      0.83893103202028174000	      1.02196438538967850000	     -0.33289648393540383000	    -13.00449903751206200000	      2.09112428696957320000	      2.90481971008306680000	    -45.23396193457330100000	    -18.58653529521951600000	     -0.00000000000004734745	     -0.00000000000001704348	     20.92193753049211200000	      2.91566712661628720000	      4.53863844998087270000	     -9.17410910770134080000	      0.48783432829947954000	     -0.00000000000006925902	      0.00000000000000569768	    -10.41836644223677100000	     -4.48749656985103050000	      6.44572147231949530000	    -15.80292863033443500000	    -24.13717878018442800000	    -12.91140487396204200000	    100.60016448449284000000	     73.66469203486057900000	      0.00000000000000423413	     -0.00000000000001276952	    -37.37906358703080700000	    -16.55461366045615900000	    -12.64374962226473700000	     96.92663206386656300000	     95.30538694193296600000	     -0.00000000000002172505	     -0.00000000000000384795
